<?xml version="1.0" encoding="UTF-8"?>
<svg id="Layer_2" data-name="Layer 2" xmlns="http://www.w3.org/2000/svg" xmlns:xlink="http://www.w3.org/1999/xlink" viewBox="0 0 313 89">
  <defs>
    <style>
      .cls-1, .cls-2 {
        stroke-width: 0px;
      }

      .cls-2 {
        fill: red;
      }

      .cls-3 {
        fill: #fff;
        filter: url(#drop-shadow-1);
        stroke: #000;
        stroke-miterlimit: 10;
      }
    </style>
    <filter id="drop-shadow-1" filterUnits="userSpaceOnUse">
      <feOffset dx="2" dy="2"/>
      <feGaussianBlur result="blur" stdDeviation="3"/>
      <feFlood flood-color="#000" flood-opacity=".75"/>
      <feComposite in2="blur" operator="in"/>
      <feComposite in="SourceGraphic"/>
    </filter>
  </defs>
  <g id="Layer_1-2" data-name="Layer 1">
    <path class="cls-3" d="m297.42,37.62c3.04-3.18,3.7-8.75,3.7-10.62,0-9.29-8.62-15.3-21.96-15.3-11.51,0-24.76,8.02-27.08,21.44-.22,1.11-.22,2.08-.22,2.74,0,1.72.3,3.32.86,4.77l-8.74,1.03,10.39-29.12-22.53,2.72.94-3.23-37.26,3.09.9-3.09-33.11,2.74,1.44-4.7-28.51,3.73-.67,1.92-6.39.81,3.01-7.4-29.91,3.42-4.13,10.65-6.16.64,1.04-8.31-19.41,1.45c-2.77-4.53-9.18-8.67-23.43-8.67-6.1,0-12.32.59-18.47,1.76l-3.29.62-11.93,31.26-2.47.79-6.15,34.19,53.63-5.29-.03.29,19.55-2.67-.15,5.74,17.19-1.95-.29.87,27.84-2.04.92-2.91,10.35-.92-1.41,4.5,37.41-3.35-1.05,3.35,36.91-3.31-.8,2.4,40.22-3.62.3-.79c4.37,3.8,11.01,5.59,17.37,5.59,6.91,0,14.44-1.7,20.67-4.68,7.05-3.41,14.19-11.76,14.19-21.12,0-3.75-1.23-6.9-3.53-9.15l.25-.26Z"/>
    <g>
      <path class="cls-2" d="m50.48,44.79l-13.75,6.7,26.43-3.1-5.62,17.64-42.34,4.18,4.1-22.83c5.18-1.66,30.17-10.44,30.17-15.84,0-1.3-2.09-1.3-2.88-1.3-3.17,0-17.64,2.66-20.59,3.67l6.84-17.93c5.69-1.08,11.59-1.66,17.35-1.66,6.55,0,19.37.79,19.37,9.87,0,10.3-11.02,16.63-19.08,20.59Z"/>
      <path class="cls-1" d="m122.82,16.26l-20.46,50.28-15.3,1.74.48-17.82-5.7,12.66-13.62,1.86,4.26-41.88,13.68-1.02-2.58,20.58,6.78-12.6,5.22-.54.36,15.96,10.62-27.36,16.26-1.86Z"/>
      <path class="cls-1" d="m156.28,17.25l-13.56,44.28-15.6,1.38,4.2-13.38-5.1.54-5.1,16.14-14.76,1.08,14.82-43.68,12.78-1.62-4.08,13.02,5.4-.3,5.4-15.42,15.6-2.04Z"/>
      <path class="cls-1" d="m188.22,18.75l-3.48,11.94-17.4,1.5-1.14,3.42,13.14-1.26-3.06,10.5-12.96,1.5-1.26,4.02,21-2.7-4.38,15-34.8,3.12,13.92-44.52,30.42-2.52Z"/>
      <path class="cls-1" d="m224.58,18.75l-3.48,11.94-17.4,1.5-1.14,3.42,13.14-1.26-3.06,10.5-12.96,1.5-1.26,4.02,21-2.7-4.38,15-34.8,3.12,13.92-44.52,30.42-2.52Z"/>
      <path class="cls-1" d="m249.78,47.04l-5.88,15.36-27.36,2.46,14.52-43.44,14.4-1.74-10.38,29.1,14.7-1.74Z"/>
      <path class="cls-1" d="m293.08,33.48l-13.14,1.08c.48-1.08,1.02-2.4,1.02-3.6,0-2.1-2.04-2.52-3.78-2.52-1.92,0-6.78,1.02-6.78,3.6,0,2.16,4.62,3.6,6.3,4.02,4.92,1.26,10.08,2.76,14.64,4.98,2.46,1.2,3.36,3.36,3.36,6,0,6.42-5.22,13.02-10.8,15.72-5.4,2.58-12.06,4.08-18.06,4.08-6.3,0-16.32-2.52-16.32-10.38,0-2.28,1.14-5.4,2.16-7.44,3.84-.66,10.98-2.16,14.52-2.16h.24c-.6,1.32-1.32,2.94-1.32,4.38,0,2.34,1.92,2.7,3.84,2.7,3.84,0,9.06-.18,11.04-4.14.12-.24.18-.48.18-.72,0-2.28-6-3.24-7.62-3.6-3.96-.84-8.22-2.64-11.88-4.38-2.04-.96-2.82-3.06-2.82-5.22,0-.54,0-1.08.12-1.62,1.62-9.72,11.7-16.56,21.18-16.56,5.82,0,15.96,1.68,15.96,9.3,0,1.8-.78,5.16-2.04,6.48Z"/>
    </g>
  </g>
</svg>